<svg version="1.1" viewBox="0.0 0.0 652.0 371.0" fill="none" stroke="none" stroke-linecap="square" stroke-miterlimit="10" width="652" height="371" xmlns:xlink="http://www.w3.org/1999/xlink" xmlns="http://www.w3.org/2000/svg"><path fill="#f3f4f6" d="M0 0L652.0 0L652.0 371.0L0 371.0L0 0Z" fill-rule="nonzero"/><path stroke="#c0c1c3" stroke-width="1.0" stroke-linecap="butt" d="M143.5 51.5L143.5 332.5" fill-rule="nonzero"/><path stroke="#c0c1c3" stroke-width="1.0" stroke-linecap="butt" d="M272.5 51.5L272.5 332.5" fill-rule="nonzero"/><path stroke="#c0c1c3" stroke-width="1.0" stroke-linecap="butt" d="M400.5 51.5L400.5 332.5" fill-rule="nonzero"/><path stroke="#c0c1c3" stroke-width="1.0" stroke-linecap="butt" d="M529.5 51.5L529.5 332.5" fill-rule="nonzero"/><path stroke="#282828" stroke-width="1.0" stroke-linecap="butt" d="M66.5 332.5L606.5 332.5" fill-rule="nonzero"/><path stroke="#c0c1c3" stroke-width="1.0" stroke-linecap="butt" d="M66.5 262.5L606.5 262.5" fill-rule="nonzero"/><path stroke="#c0c1c3" stroke-width="1.0" stroke-linecap="butt" d="M66.5 192.5L606.5 192.5" fill-rule="nonzero"/><path stroke="#c0c1c3" stroke-width="1.0" stroke-linecap="butt" d="M66.5 122.5L606.5 122.5" fill-rule="nonzero"/><path stroke="#c0c1c3" stroke-width="1.0" stroke-linecap="butt" d="M66.5 51.5L606.5 51.5" fill-rule="nonzero"/><clipPath id="id_0"><path d="M66.55 51.916668L606.45 51.916668L606.45 332.45L66.55 332.45L66.55 51.916668Z" clip-rule="nonzero"/></clipPath><path stroke="#434343" stroke-width="2.0" stroke-linecap="butt" clip-path="url(#id_0)" d="M66.55 317.75357L92.25952 308.40408L117.96905 299.09598L143.67857 287.4195L169.38809 273.4377L195.09763 260.93152L220.80714 245.03722L246.51666 231.86057L272.2262 214.77399L297.9357 200.30688L323.64523 184.60542L349.35477 171.06828L375.0643 160.1331L400.7738 146.38066L426.48334 132.32384L452.19287 123.11953L477.90237 119.77557L503.6119 112.71034L529.3214 119.98668L555.03094 120.48463L580.7405 111.72918L606.45 86.73576" fill-rule="nonzero"/><path stroke="#ea4335" stroke-width="2.0" stroke-linecap="butt" clip-path="url(#id_0)" d="M66.55 156.64911L92.25952 186.57266L117.96905 199.66422L143.67857 209.01534L169.38809 216.49622L195.09763 197.794L220.80714 227.71756L246.51666 212.75578L272.2262 225.84734L297.9357 225.84734L323.64523 210.88556L349.35477 233.32822L375.0643 209.01534L400.7738 218.36644L426.48334 218.36644L452.19287 190.31311L477.90237 186.57266L503.6119 192.18333L529.3214 167.87044L555.03094 199.66422L580.7405 152.90866L606.45 137.94688" fill-rule="nonzero"/><path fill="#000000" fill-opacity="0.0" clip-path="url(#id_0)" d="M69.55 317.75357C69.55 319.4104 68.206856 320.75357 66.55 320.75357C64.89314 320.75357 63.55 319.4104 63.55 317.75357C63.55 316.0967 64.89314 314.75357 66.55 314.75357C68.206856 314.75357 69.55 316.0967 69.55 317.75357Z" fill-rule="nonzero"/><path fill="#000000" fill-opacity="0.0" clip-path="url(#id_0)" d="M95.25952 308.40408C95.25952 310.06094 93.91638 311.40408 92.25952 311.40408C90.60267 311.40408 89.25952 310.06094 89.25952 308.40408C89.25952 306.74722 90.60267 305.40408 92.25952 305.40408C93.91638 305.40408 95.25952 306.74722 95.25952 308.40408Z" fill-rule="nonzero"/><path fill="#000000" fill-opacity="0.0" clip-path="url(#id_0)" d="M120.96905 299.09598C120.96905 300.75284 119.6259 302.09598 117.96905 302.09598C116.312195 302.09598 114.96905 300.75284 114.96905 299.09598C114.96905 297.43915 116.312195 296.09598 117.96905 296.09598C119.6259 296.09598 120.96905 297.43915 120.96905 299.09598Z" fill-rule="nonzero"/><path fill="#000000" fill-opacity="0.0" clip-path="url(#id_0)" d="M146.67857 287.4195C146.67857 289.07635 145.33542 290.4195 143.67857 290.4195C142.02171 290.4195 140.67857 289.07635 140.67857 287.4195C140.67857 285.76263 142.02171 284.4195 143.67857 284.4195C145.33542 284.4195 146.67857 285.76263 146.67857 287.4195Z" fill-rule="nonzero"/><path fill="#000000" fill-opacity="0.0" clip-path="url(#id_0)" d="M172.38809 273.4377C172.38809 275.09457 171.04495 276.4377 169.38809 276.4377C167.73125 276.4377 166.38809 275.09457 166.38809 273.4377C166.38809 271.78085 167.73125 270.4377 169.38809 270.4377C171.04495 270.4377 172.38809 271.78085 172.38809 273.4377Z" fill-rule="nonzero"/><path fill="#000000" fill-opacity="0.0" clip-path="url(#id_0)" d="M198.09763 260.93152C198.09763 262.58838 196.75447 263.93152 195.09763 263.93152C193.44077 263.93152 192.09763 262.58838 192.09763 260.93152C192.09763 259.2747 193.44077 257.93152 195.09763 257.93152C196.75447 257.93152 198.09763 259.2747 198.09763 260.93152Z" fill-rule="nonzero"/><path fill="#000000" fill-opacity="0.0" clip-path="url(#id_0)" d="M223.80714 245.03722C223.80714 246.69408 222.464 248.03722 220.80714 248.03722C219.15028 248.03722 217.80714 246.69408 217.80714 245.03722C217.80714 243.38036 219.15028 242.03722 220.80714 242.03722C222.464 242.03722 223.80714 243.38036 223.80714 245.03722Z" fill-rule="nonzero"/><path fill="#000000" fill-opacity="0.0" clip-path="url(#id_0)" d="M249.51666 231.86057C249.51666 233.51743 248.17352 234.86057 246.51666 234.86057C244.85982 234.86057 243.51666 233.51743 243.51666 231.86057C243.51666 230.2037 244.85982 228.86057 246.51666 228.86057C248.17352 228.86057 249.51666 230.2037 249.51666 231.86057Z" fill-rule="nonzero"/><path fill="#000000" fill-opacity="0.0" clip-path="url(#id_0)" d="M275.2262 214.77399C275.2262 216.43083 273.88306 217.77399 272.2262 217.77399C270.56934 217.77399 269.2262 216.43083 269.2262 214.77399C269.2262 213.11713 270.56934 211.77399 272.2262 211.77399C273.88306 211.77399 275.2262 213.11713 275.2262 214.77399Z" fill-rule="nonzero"/><path fill="#000000" fill-opacity="0.0" clip-path="url(#id_0)" d="M300.9357 200.30688C300.9357 201.96373 299.59256 203.30688 297.9357 203.30688C296.27887 203.30688 294.9357 201.96373 294.9357 200.30688C294.9357 198.65002 296.27887 197.30688 297.9357 197.30688C299.59256 197.30688 300.9357 198.65002 300.9357 200.30688Z" fill-rule="nonzero"/><path fill="#000000" fill-opacity="0.0" clip-path="url(#id_0)" d="M326.64523 184.60542C326.64523 186.26228 325.3021 187.60542 323.64523 187.60542C321.98837 187.60542 320.64523 186.26228 320.64523 184.60542C320.64523 182.94858 321.98837 181.60542 323.64523 181.60542C325.3021 181.60542 326.64523 182.94858 326.64523 184.60542Z" fill-rule="nonzero"/><path fill="#000000" fill-opacity="0.0" clip-path="url(#id_0)" d="M352.35477 171.06828C352.35477 172.72514 351.01163 174.06828 349.35477 174.06828C347.6979 174.06828 346.35477 172.72514 346.35477 171.06828C346.35477 169.41144 347.6979 168.06828 349.35477 168.06828C351.01163 168.06828 352.35477 169.41144 352.35477 171.06828Z" fill-rule="nonzero"/><path fill="#000000" fill-opacity="0.0" clip-path="url(#id_0)" d="M378.0643 160.1331C378.0643 161.78996 376.72113 163.1331 375.0643 163.1331C373.40744 163.1331 372.0643 161.78996 372.0643 160.1331C372.0643 158.47624 373.40744 157.1331 375.0643 157.1331C376.72113 157.1331 378.0643 158.47624 378.0643 160.1331Z" fill-rule="nonzero"/><path fill="#000000" fill-opacity="0.0" clip-path="url(#id_0)" d="M403.7738 146.38066C403.7738 148.0375 402.43066 149.38066 400.7738 149.38066C399.11694 149.38066 397.7738 148.0375 397.7738 146.38066C397.7738 144.7238 399.11694 143.38066 400.7738 143.38066C402.43066 143.38066 403.7738 144.7238 403.7738 146.38066Z" fill-rule="nonzero"/><path fill="#000000" fill-opacity="0.0" clip-path="url(#id_0)" d="M429.48334 132.32384C429.48334 133.98068 428.1402 135.32384 426.48334 135.32384C424.82648 135.32384 423.48334 133.98068 423.48334 132.32384C423.48334 130.66698 424.82648 129.32384 426.48334 129.32384C428.1402 129.32384 429.48334 130.66698 429.48334 132.32384Z" fill-rule="nonzero"/><path fill="#000000" fill-opacity="0.0" clip-path="url(#id_0)" d="M455.19287 123.11953C455.19287 124.77639 453.8497 126.11953 452.19287 126.11953C450.536 126.11953 449.19287 124.77639 449.19287 123.11953C449.19287 121.46268 450.536 120.11953 452.19287 120.11953C453.8497 120.11953 455.19287 121.46268 455.19287 123.11953Z" fill-rule="nonzero"/><path fill="#000000" fill-opacity="0.0" clip-path="url(#id_0)" d="M480.90237 119.77557C480.90237 121.43243 479.55923 122.77557 477.90237 122.77557C476.2455 122.77557 474.90237 121.43243 474.90237 119.77557C474.90237 118.11872 476.2455 116.77557 477.90237 116.77557C479.55923 116.77557 480.90237 118.11872 480.90237 119.77557Z" fill-rule="nonzero"/><path fill="#000000" fill-opacity="0.0" clip-path="url(#id_0)" d="M506.6119 112.71034C506.6119 114.367195 505.26877 115.71034 503.6119 115.71034C501.95505 115.71034 500.6119 114.367195 500.6119 112.71034C500.6119 111.05349 501.95505 109.71034 503.6119 109.71034C505.26877 109.71034 506.6119 111.05349 506.6119 112.71034Z" fill-rule="nonzero"/><path fill="#000000" fill-opacity="0.0" clip-path="url(#id_0)" d="M532.3214 119.98668C532.3214 121.64353 530.9783 122.98668 529.3214 122.98668C527.66455 122.98668 526.3214 121.64353 526.3214 119.98668C526.3214 118.32983 527.66455 116.98668 529.3214 116.98668C530.9783 116.98668 532.3214 118.32983 532.3214 119.98668Z" fill-rule="nonzero"/><path fill="#000000" fill-opacity="0.0" clip-path="url(#id_0)" d="M558.03094 120.48463C558.03094 122.14148 556.6878 123.48463 555.03094 123.48463C553.3741 123.48463 552.03094 122.14148 552.03094 120.48463C552.03094 118.82777 553.3741 117.48463 555.03094 117.48463C556.6878 117.48463 558.03094 118.82777 558.03094 120.48463Z" fill-rule="nonzero"/><path fill="#000000" fill-opacity="0.0" clip-path="url(#id_0)" d="M583.7405 111.72918C583.7405 113.38603 582.39734 114.72918 580.7405 114.72918C579.0836 114.72918 577.7405 113.38603 577.7405 111.72918C577.7405 110.07233 579.0836 108.72918 580.7405 108.72918C582.39734 108.72918 583.7405 110.07233 583.7405 111.72918Z" fill-rule="nonzero"/><path fill="#000000" fill-opacity="0.0" clip-path="url(#id_0)" d="M609.45 86.73576C609.45 88.39262 608.1069 89.73576 606.45 89.73576C604.79315 89.73576 603.45 88.39262 603.45 86.73576C603.45 85.07891 604.79315 83.73576 606.45 83.73576C608.1069 83.73576 609.45 85.07891 609.45 86.73576Z" fill-rule="nonzero"/><path fill="#000000" fill-opacity="0.0" clip-path="url(#id_0)" d="M69.55 156.64911C69.55 158.30597 68.206856 159.64911 66.55 159.64911C64.89314 159.64911 63.55 158.30597 63.55 156.64911C63.55 154.99226 64.89314 153.64911 66.55 153.64911C68.206856 153.64911 69.55 154.99226 69.55 156.64911Z" fill-rule="nonzero"/><path fill="#000000" fill-opacity="0.0" clip-path="url(#id_0)" d="M95.25952 186.57266C95.25952 188.22952 93.91638 189.57266 92.25952 189.57266C90.60267 189.57266 89.25952 188.22952 89.25952 186.57266C89.25952 184.91582 90.60267 183.57266 92.25952 183.57266C93.91638 183.57266 95.25952 184.91582 95.25952 186.57266Z" fill-rule="nonzero"/><path fill="#000000" fill-opacity="0.0" clip-path="url(#id_0)" d="M120.96905 199.66422C120.96905 201.32108 119.6259 202.66422 117.96905 202.66422C116.312195 202.66422 114.96905 201.32108 114.96905 199.66422C114.96905 198.00737 116.312195 196.66422 117.96905 196.66422C119.6259 196.66422 120.96905 198.00737 120.96905 199.66422Z" fill-rule="nonzero"/><path fill="#000000" fill-opacity="0.0" clip-path="url(#id_0)" d="M146.67857 209.01534C146.67857 210.67218 145.33542 212.01534 143.67857 212.01534C142.02171 212.01534 140.67857 210.67218 140.67857 209.01534C140.67857 207.35847 142.02171 206.01534 143.67857 206.01534C145.33542 206.01534 146.67857 207.35847 146.67857 209.01534Z" fill-rule="nonzero"/><path fill="#000000" fill-opacity="0.0" clip-path="url(#id_0)" d="M172.38809 216.49622C172.38809 218.15308 171.04495 219.49622 169.38809 219.49622C167.73125 219.49622 166.38809 218.15308 166.38809 216.49622C166.38809 214.83937 167.73125 213.49622 169.38809 213.49622C171.04495 213.49622 172.38809 214.83937 172.38809 216.49622Z" fill-rule="nonzero"/><path fill="#000000" fill-opacity="0.0" clip-path="url(#id_0)" d="M198.09763 197.794C198.09763 199.45085 196.75447 200.794 195.09763 200.794C193.44077 200.794 192.09763 199.45085 192.09763 197.794C192.09763 196.13715 193.44077 194.794 195.09763 194.794C196.75447 194.794 198.09763 196.13715 198.09763 197.794Z" fill-rule="nonzero"/><path fill="#000000" fill-opacity="0.0" clip-path="url(#id_0)" d="M223.80714 227.71756C223.80714 229.3744 222.464 230.71756 220.80714 230.71756C219.15028 230.71756 217.80714 229.3744 217.80714 227.71756C217.80714 226.0607 219.15028 224.71756 220.80714 224.71756C222.464 224.71756 223.80714 226.0607 223.80714 227.71756Z" fill-rule="nonzero"/><path fill="#000000" fill-opacity="0.0" clip-path="url(#id_0)" d="M249.51666 212.75578C249.51666 214.41263 248.17352 215.75578 246.51666 215.75578C244.85982 215.75578 243.51666 214.41263 243.51666 212.75578C243.51666 211.09892 244.85982 209.75578 246.51666 209.75578C248.17352 209.75578 249.51666 211.09892 249.51666 212.75578Z" fill-rule="nonzero"/><path fill="#000000" fill-opacity="0.0" clip-path="url(#id_0)" d="M275.2262 225.84734C275.2262 227.50418 273.88306 228.84734 272.2262 228.84734C270.56934 228.84734 269.2262 227.50418 269.2262 225.84734C269.2262 224.19048 270.56934 222.84734 272.2262 222.84734C273.88306 222.84734 275.2262 224.19048 275.2262 225.84734Z" fill-rule="nonzero"/><path fill="#000000" fill-opacity="0.0" clip-path="url(#id_0)" d="M300.9357 225.84734C300.9357 227.50418 299.59256 228.84734 297.9357 228.84734C296.27887 228.84734 294.9357 227.50418 294.9357 225.84734C294.9357 224.19048 296.27887 222.84734 297.9357 222.84734C299.59256 222.84734 300.9357 224.19048 300.9357 225.84734Z" fill-rule="nonzero"/><path fill="#000000" fill-opacity="0.0" clip-path="url(#id_0)" d="M326.64523 210.88556C326.64523 212.5424 325.3021 213.88556 323.64523 213.88556C321.98837 213.88556 320.64523 212.5424 320.64523 210.88556C320.64523 209.2287 321.98837 207.88556 323.64523 207.88556C325.3021 207.88556 326.64523 209.2287 326.64523 210.88556Z" fill-rule="nonzero"/><path fill="#000000" fill-opacity="0.0" clip-path="url(#id_0)" d="M352.35477 233.32822C352.35477 234.98508 351.01163 236.32822 349.35477 236.32822C347.6979 236.32822 346.35477 234.98508 346.35477 233.32822C346.35477 231.67137 347.6979 230.32822 349.35477 230.32822C351.01163 230.32822 352.35477 231.67137 352.35477 233.32822Z" fill-rule="nonzero"/><path fill="#000000" fill-opacity="0.0" clip-path="url(#id_0)" d="M378.0643 209.01534C378.0643 210.67218 376.72113 212.01534 375.0643 212.01534C373.40744 212.01534 372.0643 210.67218 372.0643 209.01534C372.0643 207.35847 373.40744 206.01534 375.0643 206.01534C376.72113 206.01534 378.0643 207.35847 378.0643 209.01534Z" fill-rule="nonzero"/><path fill="#000000" fill-opacity="0.0" clip-path="url(#id_0)" d="M403.7738 218.36644C403.7738 220.0233 402.43066 221.36644 400.7738 221.36644C399.11694 221.36644 397.7738 220.0233 397.7738 218.36644C397.7738 216.7096 399.11694 215.36644 400.7738 215.36644C402.43066 215.36644 403.7738 216.7096 403.7738 218.36644Z" fill-rule="nonzero"/><path fill="#000000" fill-opacity="0.0" clip-path="url(#id_0)" d="M429.48334 218.36644C429.48334 220.0233 428.1402 221.36644 426.48334 221.36644C424.82648 221.36644 423.48334 220.0233 423.48334 218.36644C423.48334 216.7096 424.82648 215.36644 426.48334 215.36644C428.1402 215.36644 429.48334 216.7096 429.48334 218.36644Z" fill-rule="nonzero"/><path fill="#000000" fill-opacity="0.0" clip-path="url(#id_0)" d="M455.19287 190.31311C455.19287 191.96997 453.8497 193.31311 452.19287 193.31311C450.536 193.31311 449.19287 191.96997 449.19287 190.31311C449.19287 188.65625 450.536 187.31311 452.19287 187.31311C453.8497 187.31311 455.19287 188.65625 455.19287 190.31311Z" fill-rule="nonzero"/><path fill="#000000" fill-opacity="0.0" clip-path="url(#id_0)" d="M480.90237 186.57266C480.90237 188.22952 479.55923 189.57266 477.90237 189.57266C476.2455 189.57266 474.90237 188.22952 474.90237 186.57266C474.90237 184.91582 476.2455 183.57266 477.90237 183.57266C479.55923 183.57266 480.90237 184.91582 480.90237 186.57266Z" fill-rule="nonzero"/><path fill="#000000" fill-opacity="0.0" clip-path="url(#id_0)" d="M506.6119 192.18333C506.6119 193.8402 505.26877 195.18333 503.6119 195.18333C501.95505 195.18333 500.6119 193.8402 500.6119 192.18333C500.6119 190.52647 501.95505 189.18333 503.6119 189.18333C505.26877 189.18333 506.6119 190.52647 506.6119 192.18333Z" fill-rule="nonzero"/><path fill="#000000" fill-opacity="0.0" clip-path="url(#id_0)" d="M532.3214 167.87044C532.3214 169.5273 530.9783 170.87044 529.3214 170.87044C527.66455 170.87044 526.3214 169.5273 526.3214 167.87044C526.3214 166.2136 527.66455 164.87044 529.3214 164.87044C530.9783 164.87044 532.3214 166.2136 532.3214 167.87044Z" fill-rule="nonzero"/><path fill="#000000" fill-opacity="0.0" clip-path="url(#id_0)" d="M558.03094 199.66422C558.03094 201.32108 556.6878 202.66422 555.03094 202.66422C553.3741 202.66422 552.03094 201.32108 552.03094 199.66422C552.03094 198.00737 553.3741 196.66422 555.03094 196.66422C556.6878 196.66422 558.03094 198.00737 558.03094 199.66422Z" fill-rule="nonzero"/><path fill="#000000" fill-opacity="0.0" clip-path="url(#id_0)" d="M583.7405 152.90866C583.7405 154.56552 582.39734 155.90866 580.7405 155.90866C579.0836 155.90866 577.7405 154.56552 577.7405 152.90866C577.7405 151.25182 579.0836 149.90866 580.7405 149.90866C582.39734 149.90866 583.7405 151.25182 583.7405 152.90866Z" fill-rule="nonzero"/><path fill="#000000" fill-opacity="0.0" clip-path="url(#id_0)" d="M609.45 137.94688C609.45 139.60374 608.1069 140.94688 606.45 140.94688C604.79315 140.94688 603.45 139.60374 603.45 137.94688C603.45 136.29004 604.79315 134.94688 606.45 134.94688C608.1069 134.94688 609.45 136.29004 609.45 137.94688Z" fill-rule="nonzero"/><path fill="#000000" d="M54.05 332.21564Q54.05 330.6844 54.3625 329.7625Q54.675 328.825 55.284374 328.325Q55.909374 327.825 56.846874 327.825Q57.534374 327.825 58.05 328.10626Q58.58125 328.3875 58.925 328.91876Q59.26875 329.4344 59.45625 330.1844Q59.64375 330.9344 59.64375 332.21564Q59.64375 333.73126 59.33125 334.65314Q59.034374 335.575 58.409374 336.09064Q57.8 336.59064 56.846874 336.59064Q55.6125 336.59064 54.89375 335.7Q54.05 334.6375 54.05 332.21564ZM55.128124 332.21564Q55.128124 334.325 55.628124 335.02814Q56.128124 335.73126 56.846874 335.73126Q57.58125 335.73126 58.065624 335.02814Q58.565624 334.325 58.565624 332.21564Q58.565624 330.09064 58.065624 329.40314Q57.58125 328.7 56.83125 328.7Q56.1125 328.7 55.675 329.3094Q55.128124 330.09064 55.128124 332.21564Z" fill-rule="nonzero"/><path fill="#000000" d="M23.01875 266.31668L21.971874 266.31668L21.971874 259.59793Q21.58125 259.9573 20.95625 260.3323Q20.346874 260.69168 19.8625 260.86356L19.8625 259.84793Q20.7375 259.42606 21.39375 258.84793Q22.065624 258.25418 22.346874 257.69168L23.01875 257.69168L23.01875 266.31668ZM26.05 262.0823Q26.05 260.55106 26.3625 259.62918Q26.675 258.69168 27.284374 258.19168Q27.909374 257.69168 28.846874 257.69168Q29.534374 257.69168 30.05 257.97293Q30.58125 258.25418 30.925 258.78543Q31.26875 259.30106 31.45625 260.05106Q31.64375 260.80106 31.64375 262.0823Q31.64375 263.59793 31.33125 264.5198Q31.034374 265.44168 30.409374 265.9573Q29.8 266.4573 28.846874 266.4573Q27.6125 266.4573 26.89375 265.56668Q26.05 264.50418 26.05 262.0823ZM27.128124 262.0823Q27.128124 264.19168 27.628124 264.8948Q28.128124 265.59793 28.846874 265.59793Q29.58125 265.59793 30.065624 264.8948Q30.565624 264.19168 30.565624 262.0823Q30.565624 259.9573 30.065624 259.2698Q29.58125 258.56668 28.83125 258.56668Q28.1125 258.56668 27.675 259.17606Q27.128124 259.9573 27.128124 262.0823ZM33.05 262.0823Q33.05 260.55106 33.3625 259.62918Q33.675 258.69168 34.284374 258.19168Q34.909374 257.69168 35.846874 257.69168Q36.534374 257.69168 37.05 257.97293Q37.58125 258.25418 37.925 258.78543Q38.26875 259.30106 38.45625 260.05106Q38.64375 260.80106 38.64375 262.0823Q38.64375 263.59793 38.33125 264.5198Q38.034374 265.44168 37.409374 265.9573Q36.8 266.4573 35.846874 266.4573Q34.6125 266.4573 33.89375 265.56668Q33.05 264.50418 33.05 262.0823ZM34.128124 262.0823Q34.128124 264.19168 34.628124 264.8948Q35.128124 265.59793 35.846874 265.59793Q36.58125 265.59793 37.065624 264.8948Q37.565624 264.19168 37.565624 262.0823Q37.565624 259.9573 37.065624 259.2698Q36.58125 258.56668 35.83125 258.56668Q35.1125 258.56668 34.675 259.17606Q34.128124 259.9573 34.128124 262.0823ZM40.05 262.0823Q40.05 260.55106 40.3625 259.62918Q40.675 258.69168 41.284374 258.19168Q41.909374 257.69168 42.846874 257.69168Q43.534374 257.69168 44.05 257.97293Q44.58125 258.25418 44.925 258.78543Q45.26875 259.30106 45.45625 260.05106Q45.64375 260.80106 45.64375 262.0823Q45.64375 263.59793 45.33125 264.5198Q45.034374 265.44168 44.409374 265.9573Q43.8 266.4573 42.846874 266.4573Q41.6125 266.4573 40.89375 265.56668Q40.05 264.50418 40.05 262.0823ZM41.128124 262.0823Q41.128124 264.19168 41.628124 264.8948Q42.128124 265.59793 42.846874 265.59793Q43.58125 265.59793 44.065624 264.8948Q44.565624 264.19168 44.565624 262.0823Q44.565624 259.9573 44.065624 259.2698Q43.58125 258.56668 42.83125 258.56668Q42.1125 258.56668 41.675 259.17606Q41.128124 259.9573 41.128124 262.0823ZM47.05 262.0823Q47.05 260.55106 47.3625 259.62918Q47.675 258.69168 48.284374 258.19168Q48.909374 257.69168 49.846874 257.69168Q50.534374 257.69168 51.05 257.97293Q51.58125 258.25418 51.925 258.78543Q52.26875 259.30106 52.45625 260.05106Q52.64375 260.80106 52.64375 262.0823Q52.64375 263.59793 52.33125 264.5198Q52.034374 265.44168 51.409374 265.9573Q50.8 266.4573 49.846874 266.4573Q48.6125 266.4573 47.89375 265.56668Q47.05 264.50418 47.05 262.0823ZM48.128124 262.0823Q48.128124 264.19168 48.628124 264.8948Q49.128124 265.59793 49.846874 265.59793Q50.58125 265.59793 51.065624 264.8948Q51.565624 264.19168 51.565624 262.0823Q51.565624 259.9573 51.065624 259.2698Q50.58125 258.56668 49.83125 258.56668Q49.1125 258.56668 48.675 259.17606Q48.128124 259.9573 48.128124 262.0823ZM54.05 262.0823Q54.05 260.55106 54.3625 259.62918Q54.675 258.69168 55.284374 258.19168Q55.909374 257.69168 56.846874 257.69168Q57.534374 257.69168 58.05 257.97293Q58.58125 258.25418 58.925 258.78543Q59.26875 259.30106 59.45625 260.05106Q59.64375 260.80106 59.64375 262.0823Q59.64375 263.59793 59.33125 264.5198Q59.034374 265.44168 58.409374 265.9573Q57.8 266.4573 56.846874 266.4573Q55.6125 266.4573 54.89375 265.56668Q54.05 264.50418 54.05 262.0823ZM55.128124 262.0823Q55.128124 264.19168 55.628124 264.8948Q56.128124 265.59793 56.846874 265.59793Q57.58125 265.59793 58.065624 264.8948Q58.565624 264.19168 58.565624 262.0823Q58.565624 259.9573 58.065624 259.2698Q57.58125 258.56668 56.83125 258.56668Q56.1125 258.56668 55.675 259.17606Q55.128124 259.9573 55.128124 262.0823Z" fill-rule="nonzero"/><path fill="#000000" d="M24.596874 195.16771L24.596874 196.18333L18.909374 196.18333Q18.909374 195.80833 19.034374 195.44896Q19.253124 194.87083 19.721874 194.30833Q20.20625 193.74583 21.1125 193.01146Q22.51875 191.85521 23.003124 191.18333Q23.503124 190.51146 23.503124 189.91771Q23.503124 189.29271 23.05 188.87083Q22.596874 188.43333 21.878124 188.43333Q21.1125 188.43333 20.659374 188.88646Q20.20625 189.33958 20.190624 190.15208L19.1125 190.04271Q19.221874 188.82396 19.940624 188.19896Q20.675 187.55833 21.909374 187.55833Q23.14375 187.55833 23.8625 188.24583Q24.58125 188.93333 24.58125 189.94896Q24.58125 190.46458 24.3625 190.96458Q24.159374 191.44896 23.659374 192.01146Q23.175 192.55833 22.05 193.51146Q21.096874 194.30833 20.815624 194.60521Q20.55 194.88646 20.378124 195.16771L24.596874 195.16771ZM26.05 191.94896Q26.05 190.41771 26.3625 189.49583Q26.675 188.55833 27.284374 188.05833Q27.909374 187.55833 28.846874 187.55833Q29.534374 187.55833 30.05 187.83958Q30.58125 188.12083 30.925 188.65208Q31.26875 189.16771 31.45625 189.91771Q31.64375 190.66771 31.64375 191.94896Q31.64375 193.46458 31.33125 194.38646Q31.034374 195.30833 30.409374 195.82396Q29.8 196.32396 28.846874 196.32396Q27.6125 196.32396 26.89375 195.43333Q26.05 194.37083 26.05 191.94896ZM27.128124 191.94896Q27.128124 194.05833 27.628124 194.76146Q28.128124 195.46458 28.846874 195.46458Q29.58125 195.46458 30.065624 194.76146Q30.565624 194.05833 30.565624 191.94896Q30.565624 189.82396 30.065624 189.13646Q29.58125 188.43333 28.83125 188.43333Q28.1125 188.43333 27.675 189.04271Q27.128124 189.82396 27.128124 191.94896ZM33.05 191.94896Q33.05 190.41771 33.3625 189.49583Q33.675 188.55833 34.284374 188.05833Q34.909374 187.55833 35.846874 187.55833Q36.534374 187.55833 37.05 187.83958Q37.58125 188.12083 37.925 188.65208Q38.26875 189.16771 38.45625 189.91771Q38.64375 190.66771 38.64375 191.94896Q38.64375 193.46458 38.33125 194.38646Q38.034374 195.30833 37.409374 195.82396Q36.8 196.32396 35.846874 196.32396Q34.6125 196.32396 33.89375 195.43333Q33.05 194.37083 33.05 191.94896ZM34.128124 191.94896Q34.128124 194.05833 34.628124 194.76146Q35.128124 195.46458 35.846874 195.46458Q36.58125 195.46458 37.065624 194.76146Q37.565624 194.05833 37.565624 191.94896Q37.565624 189.82396 37.065624 189.13646Q36.58125 188.43333 35.83125 188.43333Q35.1125 188.43333 34.675 189.04271Q34.128124 189.82396 34.128124 191.94896ZM40.05 191.94896Q40.05 190.41771 40.3625 189.49583Q40.675 188.55833 41.284374 188.05833Q41.909374 187.55833 42.846874 187.55833Q43.534374 187.55833 44.05 187.83958Q44.58125 188.12083 44.925 188.65208Q45.26875 189.16771 45.45625 189.91771Q45.64375 190.66771 45.64375 191.94896Q45.64375 193.46458 45.33125 194.38646Q45.034374 195.30833 44.409374 195.82396Q43.8 196.32396 42.846874 196.32396Q41.6125 196.32396 40.89375 195.43333Q40.05 194.37083 40.05 191.94896ZM41.128124 191.94896Q41.128124 194.05833 41.628124 194.76146Q42.128124 195.46458 42.846874 195.46458Q43.58125 195.46458 44.065624 194.76146Q44.565624 194.05833 44.565624 191.94896Q44.565624 189.82396 44.065624 189.13646Q43.58125 188.43333 42.83125 188.43333Q42.1125 188.43333 41.675 189.04271Q41.128124 189.82396 41.128124 191.94896ZM47.05 191.94896Q47.05 190.41771 47.3625 189.49583Q47.675 188.55833 48.284374 188.05833Q48.909374 187.55833 49.846874 187.55833Q50.534374 187.55833 51.05 187.83958Q51.58125 188.12083 51.925 188.65208Q52.26875 189.16771 52.45625 189.91771Q52.64375 190.66771 52.64375 191.94896Q52.64375 193.46458 52.33125 194.38646Q52.034374 195.30833 51.409374 195.82396Q50.8 196.32396 49.846874 196.32396Q48.6125 196.32396 47.89375 195.43333Q47.05 194.37083 47.05 191.94896ZM48.128124 191.94896Q48.128124 194.05833 48.628124 194.76146Q49.128124 195.46458 49.846874 195.46458Q50.58125 195.46458 51.065624 194.76146Q51.565624 194.05833 51.565624 191.94896Q51.565624 189.82396 51.065624 189.13646Q50.58125 188.43333 49.83125 188.43333Q49.1125 188.43333 48.675 189.04271Q48.128124 189.82396 48.128124 191.94896ZM54.05 191.94896Q54.05 190.41771 54.3625 189.49583Q54.675 188.55833 55.284374 188.05833Q55.909374 187.55833 56.846874 187.55833Q57.534374 187.55833 58.05 187.83958Q58.58125 188.12083 58.925 188.65208Q59.26875 189.16771 59.45625 189.91771Q59.64375 190.66771 59.64375 191.94896Q59.64375 193.46458 59.33125 194.38646Q59.034374 195.30833 58.409374 195.82396Q57.8 196.32396 56.846874 196.32396Q55.6125 196.32396 54.89375 195.43333Q54.05 194.37083 54.05 191.94896ZM55.128124 191.94896Q55.128124 194.05833 55.628124 194.76146Q56.128124 195.46458 56.846874 195.46458Q57.58125 195.46458 58.065624 194.76146Q58.565624 194.05833 58.565624 191.94896Q58.565624 189.82396 58.065624 189.13646Q57.58125 188.43333 56.83125 188.43333Q56.1125 188.43333 55.675 189.04271Q55.128124 189.82396 55.128124 191.94896Z" fill-rule="nonzero"/><path fill="#000000" d="M19.05 123.78438L20.1125 123.64375Q20.284374 124.53438 20.721874 124.94063Q21.159374 125.33125 21.784374 125.33125Q22.534374 125.33125 23.05 124.81563Q23.565624 124.3 23.565624 123.53438Q23.565624 122.81563 23.08125 122.34688Q22.6125 121.8625 21.878124 121.8625Q21.58125 121.8625 21.128124 121.9875L21.253124 121.05Q21.3625 121.06563 21.425 121.06563Q22.096874 121.06563 22.628124 120.72188Q23.175 120.3625 23.175 119.62813Q23.175 119.05 22.784374 118.675Q22.39375 118.28438 21.76875 118.28438Q21.159374 118.28438 20.7375 118.675Q20.33125 119.06563 20.221874 119.83125L19.159374 119.64375Q19.346874 118.59688 20.034374 118.01875Q20.721874 117.425 21.7375 117.425Q22.440624 117.425 23.034374 117.7375Q23.628124 118.03438 23.940624 118.55Q24.253124 119.06563 24.253124 119.65938Q24.253124 120.20625 23.95625 120.675Q23.659374 121.12813 23.08125 121.39375Q23.83125 121.56563 24.253124 122.12813Q24.675 122.675 24.675 123.51875Q24.675 124.64375 23.846874 125.425Q23.034374 126.20625 21.784374 126.20625Q20.659374 126.20625 19.909374 125.53438Q19.159374 124.84688 19.05 123.78438ZM26.05 121.81563Q26.05 120.28438 26.3625 119.3625Q26.675 118.425 27.284374 117.925Q27.909374 117.425 28.846874 117.425Q29.534374 117.425 30.05 117.70625Q30.58125 117.9875 30.925 118.51875Q31.26875 119.03438 31.45625 119.78438Q31.64375 120.53438 31.64375 121.81563Q31.64375 123.33125 31.33125 124.25313Q31.034374 125.175 30.409374 125.69063Q29.8 126.19063 28.846874 126.19063Q27.6125 126.19063 26.89375 125.3Q26.05 124.2375 26.05 121.81563ZM27.128124 121.81563Q27.128124 123.925 27.628124 124.62813Q28.128124 125.33125 28.846874 125.33125Q29.58125 125.33125 30.065624 124.62813Q30.565624 123.925 30.565624 121.81563Q30.565624 119.69063 30.065624 119.00313Q29.58125 118.3 28.83125 118.3Q28.1125 118.3 27.675 118.90938Q27.128124 119.69063 27.128124 121.81563ZM33.05 121.81563Q33.05 120.28438 33.3625 119.3625Q33.675 118.425 34.284374 117.925Q34.909374 117.425 35.846874 117.425Q36.534374 117.425 37.05 117.70625Q37.58125 117.9875 37.925 118.51875Q38.26875 119.03438 38.45625 119.78438Q38.64375 120.53438 38.64375 121.81563Q38.64375 123.33125 38.33125 124.25313Q38.034374 125.175 37.409374 125.69063Q36.8 126.19063 35.846874 126.19063Q34.6125 126.19063 33.89375 125.3Q33.05 124.2375 33.05 121.81563ZM34.128124 121.81563Q34.128124 123.925 34.628124 124.62813Q35.128124 125.33125 35.846874 125.33125Q36.58125 125.33125 37.065624 124.62813Q37.565624 123.925 37.565624 121.81563Q37.565624 119.69063 37.065624 119.00313Q36.58125 118.3 35.83125 118.3Q35.1125 118.3 34.675 118.90938Q34.128124 119.69063 34.128124 121.81563ZM40.05 121.81563Q40.05 120.28438 40.3625 119.3625Q40.675 118.425 41.284374 117.925Q41.909374 117.425 42.846874 117.425Q43.534374 117.425 44.05 117.70625Q44.58125 117.9875 44.925 118.51875Q45.26875 119.03438 45.45625 119.78438Q45.64375 120.53438 45.64375 121.81563Q45.64375 123.33125 45.33125 124.25313Q45.034374 125.175 44.409374 125.69063Q43.8 126.19063 42.846874 126.19063Q41.6125 126.19063 40.89375 125.3Q40.05 124.2375 40.05 121.81563ZM41.128124 121.81563Q41.128124 123.925 41.628124 124.62813Q42.128124 125.33125 42.846874 125.33125Q43.58125 125.33125 44.065624 124.62813Q44.565624 123.925 44.565624 121.81563Q44.565624 119.69063 44.065624 119.00313Q43.58125 118.3 42.83125 118.3Q42.1125 118.3 41.675 118.90938Q41.128124 119.69063 41.128124 121.81563ZM47.05 121.81563Q47.05 120.28438 47.3625 119.3625Q47.675 118.425 48.284374 117.925Q48.909374 117.425 49.846874 117.425Q50.534374 117.425 51.05 117.70625Q51.58125 117.9875 51.925 118.51875Q52.26875 119.03438 52.45625 119.78438Q52.64375 120.53438 52.64375 121.81563Q52.64375 123.33125 52.33125 124.25313Q52.034374 125.175 51.409374 125.69063Q50.8 126.19063 49.846874 126.19063Q48.6125 126.19063 47.89375 125.3Q47.05 124.2375 47.05 121.81563ZM48.128124 121.81563Q48.128124 123.925 48.628124 124.62813Q49.128124 125.33125 49.846874 125.33125Q50.58125 125.33125 51.065624 124.62813Q51.565624 123.925 51.565624 121.81563Q51.565624 119.69063 51.065624 119.00313Q50.58125 118.3 49.83125 118.3Q49.1125 118.3 48.675 118.90938Q48.128124 119.69063 48.128124 121.81563ZM54.05 121.81563Q54.05 120.28438 54.3625 119.3625Q54.675 118.425 55.284374 117.925Q55.909374 117.425 56.846874 117.425Q57.534374 117.425 58.05 117.70625Q58.58125 117.9875 58.925 118.51875Q59.26875 119.03438 59.45625 119.78438Q59.64375 120.53438 59.64375 121.81563Q59.64375 123.33125 59.33125 124.25313Q59.034374 125.175 58.409374 125.69063Q57.8 126.19063 56.846874 126.19063Q55.6125 126.19063 54.89375 125.3Q54.05 124.2375 54.05 121.81563ZM55.128124 121.81563Q55.128124 123.925 55.628124 124.62813Q56.128124 125.33125 56.846874 125.33125Q57.58125 125.33125 58.065624 124.62813Q58.565624 123.925 58.565624 121.81563Q58.565624 119.69063 58.065624 119.00313Q57.58125 118.3 56.83125 118.3Q56.1125 118.3 55.675 118.90938Q55.128124 119.69063 55.128124 121.81563Z" fill-rule="nonzero"/><path fill="#000000" d="M22.425 55.916668L22.425 53.854168L18.70625 53.854168L18.70625 52.885418L22.628124 47.322918L23.4875 47.322918L23.4875 52.885418L24.64375 52.885418L24.64375 53.854168L23.4875 53.854168L23.4875 55.916668L22.425 55.916668ZM22.425 52.885418L22.425 49.026043L19.7375 52.885418L22.425 52.885418ZM26.05 51.682293Q26.05 50.151043 26.3625 49.229168Q26.675 48.291668 27.284374 47.791668Q27.909374 47.291668 28.846874 47.291668Q29.534374 47.291668 30.05 47.572918Q30.58125 47.854168 30.925 48.385418Q31.26875 48.901043 31.45625 49.651043Q31.64375 50.401043 31.64375 51.682293Q31.64375 53.197918 31.33125 54.119793Q31.034374 55.041668 30.409374 55.557293Q29.8 56.057293 28.846874 56.057293Q27.6125 56.057293 26.89375 55.166668Q26.05 54.104168 26.05 51.682293ZM27.128124 51.682293Q27.128124 53.791668 27.628124 54.494793Q28.128124 55.197918 28.846874 55.197918Q29.58125 55.197918 30.065624 54.494793Q30.565624 53.791668 30.565624 51.682293Q30.565624 49.557293 30.065624 48.869793Q29.58125 48.166668 28.83125 48.166668Q28.1125 48.166668 27.675 48.776043Q27.128124 49.557293 27.128124 51.682293ZM33.05 51.682293Q33.05 50.151043 33.3625 49.229168Q33.675 48.291668 34.284374 47.791668Q34.909374 47.291668 35.846874 47.291668Q36.534374 47.291668 37.05 47.572918Q37.58125 47.854168 37.925 48.385418Q38.26875 48.901043 38.45625 49.651043Q38.64375 50.401043 38.64375 51.682293Q38.64375 53.197918 38.33125 54.119793Q38.034374 55.041668 37.409374 55.557293Q36.8 56.057293 35.846874 56.057293Q34.6125 56.057293 33.89375 55.166668Q33.05 54.104168 33.05 51.682293ZM34.128124 51.682293Q34.128124 53.791668 34.628124 54.494793Q35.128124 55.197918 35.846874 55.197918Q36.58125 55.197918 37.065624 54.494793Q37.565624 53.791668 37.565624 51.682293Q37.565624 49.557293 37.065624 48.869793Q36.58125 48.166668 35.83125 48.166668Q35.1125 48.166668 34.675 48.776043Q34.128124 49.557293 34.128124 51.682293ZM40.05 51.682293Q40.05 50.151043 40.3625 49.229168Q40.675 48.291668 41.284374 47.791668Q41.909374 47.291668 42.846874 47.291668Q43.534374 47.291668 44.05 47.572918Q44.58125 47.854168 44.925 48.385418Q45.26875 48.901043 45.45625 49.651043Q45.64375 50.401043 45.64375 51.682293Q45.64375 53.197918 45.33125 54.119793Q45.034374 55.041668 44.409374 55.557293Q43.8 56.057293 42.846874 56.057293Q41.6125 56.057293 40.89375 55.166668Q40.05 54.104168 40.05 51.682293ZM41.128124 51.682293Q41.128124 53.791668 41.628124 54.494793Q42.128124 55.197918 42.846874 55.197918Q43.58125 55.197918 44.065624 54.494793Q44.565624 53.791668 44.565624 51.682293Q44.565624 49.557293 44.065624 48.869793Q43.58125 48.166668 42.83125 48.166668Q42.1125 48.166668 41.675 48.776043Q41.128124 49.557293 41.128124 51.682293ZM47.05 51.682293Q47.05 50.151043 47.3625 49.229168Q47.675 48.291668 48.284374 47.791668Q48.909374 47.291668 49.846874 47.291668Q50.534374 47.291668 51.05 47.572918Q51.58125 47.854168 51.925 48.385418Q52.26875 48.901043 52.45625 49.651043Q52.64375 50.401043 52.64375 51.682293Q52.64375 53.197918 52.33125 54.119793Q52.034374 55.041668 51.409374 55.557293Q50.8 56.057293 49.846874 56.057293Q48.6125 56.057293 47.89375 55.166668Q47.05 54.104168 47.05 51.682293ZM48.128124 51.682293Q48.128124 53.791668 48.628124 54.494793Q49.128124 55.197918 49.846874 55.197918Q50.58125 55.197918 51.065624 54.494793Q51.565624 53.791668 51.565624 51.682293Q51.565624 49.557293 51.065624 48.869793Q50.58125 48.166668 49.83125 48.166668Q49.1125 48.166668 48.675 48.776043Q48.128124 49.557293 48.128124 51.682293ZM54.05 51.682293Q54.05 50.151043 54.3625 49.229168Q54.675 48.291668 55.284374 47.791668Q55.909374 47.291668 56.846874 47.291668Q57.534374 47.291668 58.05 47.572918Q58.58125 47.854168 58.925 48.385418Q59.26875 48.901043 59.45625 49.651043Q59.64375 50.401043 59.64375 51.682293Q59.64375 53.197918 59.33125 54.119793Q59.034374 55.041668 58.409374 55.557293Q57.8 56.057293 56.846874 56.057293Q55.6125 56.057293 54.89375 55.166668Q54.05 54.104168 54.05 51.682293ZM55.128124 51.682293Q55.128124 53.791668 55.628124 54.494793Q56.128124 55.197918 56.846874 55.197918Q57.58125 55.197918 58.065624 54.494793Q58.565624 53.791668 58.565624 51.682293Q58.565624 49.557293 58.065624 48.869793Q57.58125 48.166668 56.83125 48.166668Q56.1125 48.166668 55.675 48.776043Q55.128124 49.557293 55.128124 51.682293Z" fill-rule="nonzero"/><path fill="#000000" d="M618.4969 335.4344L618.4969 336.45L612.8094 336.45Q612.8094 336.075 612.9344 335.71564Q613.15314 335.1375 613.6219 334.575Q614.10626 334.0125 615.0125 333.27814Q616.41876 332.1219 616.90314 331.45Q617.40314 330.77814 617.40314 330.1844Q617.40314 329.5594 616.95 329.1375Q616.4969 328.7 615.77814 328.7Q615.0125 328.7 614.5594 329.15314Q614.10626 329.60626 614.09064 330.41876L613.0125 330.3094Q613.1219 329.09064 613.84064 328.46564Q614.575 327.825 615.8094 327.825Q617.04376 327.825 617.7625 328.5125Q618.48126 329.2 618.48126 330.21564Q618.48126 330.73126 618.2625 331.23126Q618.0594 331.71564 617.5594 332.27814Q617.075 332.825 615.95 333.77814Q614.9969 334.575 614.71564 334.8719Q614.45 335.15314 614.27814 335.4344L618.4969 335.4344ZM620.54376 336.45L620.54376 335.2469L621.7469 335.2469L621.7469 336.45L620.54376 336.45ZM622.95 332.21564Q622.95 330.6844 623.2625 329.7625Q623.575 328.825 624.1844 328.325Q624.8094 327.825 625.7469 327.825Q626.4344 327.825 626.95 328.10626Q627.48126 328.3875 627.825 328.91876Q628.16876 329.4344 628.35626 330.1844Q628.54376 330.9344 628.54376 332.21564Q628.54376 333.73126 628.23126 334.65314Q627.9344 335.575 627.3094 336.09064Q626.7 336.59064 625.7469 336.59064Q624.5125 336.59064 623.79376 335.7Q622.95 334.6375 622.95 332.21564ZM624.02814 332.21564Q624.02814 334.325 624.52814 335.02814Q625.02814 335.73126 625.7469 335.73126Q626.48126 335.73126 626.96564 335.02814Q627.46564 334.325 627.46564 332.21564Q627.46564 330.09064 626.96564 329.40314Q626.48126 328.7 625.73126 328.7Q625.0125 328.7 624.575 329.3094Q624.02814 330.09064 624.02814 332.21564Z" fill-rule="nonzero"/><path fill="#000000" d="M618.4969 241.92326L618.4969 242.93889L612.8094 242.93889Q612.8094 242.56389 612.9344 242.20451Q613.15314 241.62639 613.6219 241.06389Q614.10626 240.50139 615.0125 239.76701Q616.41876 238.61076 616.90314 237.93889Q617.40314 237.26701 617.40314 236.67326Q617.40314 236.04826 616.95 235.62639Q616.4969 235.18889 615.77814 235.18889Q615.0125 235.18889 614.5594 235.64201Q614.10626 236.09514 614.09064 236.90764L613.0125 236.79826Q613.1219 235.57951 613.84064 234.95451Q614.575 234.31389 615.8094 234.31389Q617.04376 234.31389 617.7625 235.00139Q618.48126 235.68889 618.48126 236.70451Q618.48126 237.22014 618.2625 237.72014Q618.0594 238.20451 617.5594 238.76701Q617.075 239.31389 615.95 240.26701Q614.9969 241.06389 614.71564 241.36076Q614.45 241.64201 614.27814 241.92326L618.4969 241.92326ZM620.54376 242.93889L620.54376 241.73576L621.7469 241.73576L621.7469 242.93889L620.54376 242.93889ZM622.95 240.68889L624.0594 240.59514Q624.1844 241.40764 624.6219 241.81389Q625.075 242.22014 625.71564 242.22014Q626.46564 242.22014 626.9969 241.64201Q627.52814 241.06389 627.52814 240.12639Q627.52814 239.22014 627.0125 238.70451Q626.5125 238.17326 625.6844 238.17326Q625.1844 238.17326 624.7625 238.40764Q624.35626 238.64201 624.1219 239.00139L623.1375 238.87639L623.96564 234.47014L628.2469 234.47014L628.2469 235.47014L624.8094 235.47014L624.35626 237.78264Q625.1219 237.23576 625.96564 237.23576Q627.09064 237.23576 627.85626 238.01701Q628.6375 238.79826 628.6375 240.03264Q628.6375 241.18889 627.96564 242.04826Q627.1375 243.07951 625.71564 243.07951Q624.54376 243.07951 623.79376 242.42326Q623.0594 241.76701 622.95 240.68889Z" fill-rule="nonzero"/><path fill="#000000" d="M612.95 147.16216L614.0125 147.02153Q614.1844 147.91216 614.6219 148.3184Q615.0594 148.70903 615.6844 148.70903Q616.4344 148.70903 616.95 148.1934Q617.46564 147.67778 617.46564 146.91216Q617.46564 146.1934 616.98126 145.72466Q616.5125 145.24028 615.77814 145.24028Q615.48126 145.24028 615.02814 145.36528L615.15314 144.42778Q615.2625 144.4434 615.325 144.4434Q615.9969 144.4434 616.52814 144.09966Q617.075 143.74028 617.075 143.0059Q617.075 142.42778 616.6844 142.05278Q616.29376 141.66216 615.66876 141.66216Q615.0594 141.66216 614.6375 142.05278Q614.23126 142.4434 614.1219 143.20903L613.0594 143.02153Q613.2469 141.97466 613.9344 141.39653Q614.6219 140.80278 615.6375 140.80278Q616.34064 140.80278 616.9344 141.11528Q617.52814 141.41216 617.84064 141.92778Q618.15314 142.4434 618.15314 143.03716Q618.15314 143.58403 617.85626 144.05278Q617.5594 144.5059 616.98126 144.77153Q617.73126 144.9434 618.15314 145.5059Q618.575 146.05278 618.575 146.89653Q618.575 148.02153 617.7469 148.80278Q616.9344 149.58403 615.6844 149.58403Q614.5594 149.58403 613.8094 148.91216Q613.0594 148.22466 612.95 147.16216ZM620.54376 149.42778L620.54376 148.22466L621.7469 148.22466L621.7469 149.42778L620.54376 149.42778ZM622.95 145.1934Q622.95 143.66216 623.2625 142.74028Q623.575 141.80278 624.1844 141.30278Q624.8094 140.80278 625.7469 140.80278Q626.4344 140.80278 626.95 141.08403Q627.48126 141.36528 627.825 141.89653Q628.16876 142.41216 628.35626 143.16216Q628.54376 143.91216 628.54376 145.1934Q628.54376 146.70903 628.23126 147.6309Q627.9344 148.55278 627.3094 149.0684Q626.7 149.5684 625.7469 149.5684Q624.5125 149.5684 623.79376 148.67778Q622.95 147.61528 622.95 145.1934ZM624.02814 145.1934Q624.02814 147.30278 624.52814 148.0059Q625.02814 148.70903 625.7469 148.70903Q626.48126 148.70903 626.96564 148.0059Q627.46564 147.30278 627.46564 145.1934Q627.46564 143.0684 626.96564 142.3809Q626.48126 141.67778 625.73126 141.67778Q625.0125 141.67778 624.575 142.28716Q624.02814 143.0684 624.02814 145.1934Z" fill-rule="nonzero"/><path fill="#000000" d="M612.95 53.651043L614.0125 53.510418Q614.1844 54.401043 614.6219 54.807293Q615.0594 55.197918 615.6844 55.197918Q616.4344 55.197918 616.95 54.682293Q617.46564 54.166668 617.46564 53.401043Q617.46564 52.682293 616.98126 52.213543Q616.5125 51.729168 615.77814 51.729168Q615.48126 51.729168 615.02814 51.854168L615.15314 50.916668Q615.2625 50.932293 615.325 50.932293Q615.9969 50.932293 616.52814 50.588543Q617.075 50.229168 617.075 49.494793Q617.075 48.916668 616.6844 48.541668Q616.29376 48.151043 615.66876 48.151043Q615.0594 48.151043 614.6375 48.541668Q614.23126 48.932293 614.1219 49.697918L613.0594 49.510418Q613.2469 48.463543 613.9344 47.885418Q614.6219 47.291668 615.6375 47.291668Q616.34064 47.291668 616.9344 47.604168Q617.52814 47.901043 617.84064 48.416668Q618.15314 48.932293 618.15314 49.526043Q618.15314 50.072918 617.85626 50.541668Q617.5594 50.994793 616.98126 51.260418Q617.73126 51.432293 618.15314 51.994793Q618.575 52.541668 618.575 53.385418Q618.575 54.510418 617.7469 55.291668Q616.9344 56.072918 615.6844 56.072918Q614.5594 56.072918 613.8094 55.401043Q613.0594 54.713543 612.95 53.651043ZM620.54376 55.916668L620.54376 54.713543L621.7469 54.713543L621.7469 55.916668L620.54376 55.916668ZM622.95 53.666668L624.0594 53.572918Q624.1844 54.385418 624.6219 54.791668Q625.075 55.197918 625.71564 55.197918Q626.46564 55.197918 626.9969 54.619793Q627.52814 54.041668 627.52814 53.104168Q627.52814 52.197918 627.0125 51.682293Q626.5125 51.151043 625.6844 51.151043Q625.1844 51.151043 624.7625 51.385418Q624.35626 51.619793 624.1219 51.979168L623.1375 51.854168L623.96564 47.447918L628.2469 47.447918L628.2469 48.447918L624.8094 48.447918L624.35626 50.760418Q625.1219 50.213543 625.96564 50.213543Q627.09064 50.213543 627.85626 50.994793Q628.6375 51.776043 628.6375 53.010418Q628.6375 54.166668 627.96564 55.026043Q627.1375 56.057293 625.71564 56.057293Q624.54376 56.057293 623.79376 55.401043Q623.0594 54.744793 622.95 53.666668Z" fill-rule="nonzero"/><path fill="#000000" d="M135.72545 348.4344L135.72545 349.45L130.03795 349.45Q130.03795 349.075 130.16295 348.71564Q130.3817 348.1375 130.85045 347.575Q131.33482 347.0125 132.24107 346.27814Q133.64732 345.1219 134.1317 344.45Q134.6317 343.77814 134.6317 343.1844Q134.6317 342.5594 134.17857 342.1375Q133.72545 341.7 133.0067 341.7Q132.24107 341.7 131.78795 342.15314Q131.33482 342.60626 131.3192 343.41876L130.24107 343.3094Q130.35045 342.09064 131.0692 341.46564Q131.80357 340.825 133.03795 340.825Q134.27232 340.825 134.99107 341.5125Q135.70982 342.2 135.70982 343.21564Q135.70982 343.73126 135.49107 344.23126Q135.28795 344.71564 134.78795 345.27814Q134.30357 345.825 133.17857 346.77814Q132.22545 347.575 131.9442 347.8719Q131.67857 348.15314 131.5067 348.4344L135.72545 348.4344ZM137.17857 345.21564Q137.17857 343.6844 137.49107 342.7625Q137.80357 341.825 138.41295 341.325Q139.03795 340.825 139.97545 340.825Q140.66295 340.825 141.17857 341.10626Q141.70982 341.3875 142.05357 341.91876Q142.39732 342.4344 142.58482 343.1844Q142.77232 343.9344 142.77232 345.21564Q142.77232 346.73126 142.45982 347.65314Q142.16295 348.575 141.53795 349.09064Q140.92857 349.59064 139.97545 349.59064Q138.74107 349.59064 138.02232 348.7Q137.17857 347.6375 137.17857 345.21564ZM138.2567 345.21564Q138.2567 347.325 138.7567 348.02814Q139.2567 348.73126 139.97545 348.73126Q140.70982 348.73126 141.1942 348.02814Q141.6942 347.325 141.6942 345.21564Q141.6942 343.09064 141.1942 342.40314Q140.70982 341.7 139.95982 341.7Q139.24107 341.7 138.80357 342.3094Q138.2567 343.09064 138.2567 345.21564ZM144.17857 345.21564Q144.17857 343.6844 144.49107 342.7625Q144.80357 341.825 145.41295 341.325Q146.03795 340.825 146.97545 340.825Q147.66295 340.825 148.17857 341.10626Q148.70982 341.3875 149.05357 341.91876Q149.39732 342.4344 149.58482 343.1844Q149.77232 343.9344 149.77232 345.21564Q149.77232 346.73126 149.45982 347.65314Q149.16295 348.575 148.53795 349.09064Q147.92857 349.59064 146.97545 349.59064Q145.74107 349.59064 145.02232 348.7Q144.17857 347.6375 144.17857 345.21564ZM145.2567 345.21564Q145.2567 347.325 145.7567 348.02814Q146.2567 348.73126 146.97545 348.73126Q147.70982 348.73126 148.1942 348.02814Q148.6942 347.325 148.6942 345.21564Q148.6942 343.09064 148.1942 342.40314Q147.70982 341.7 146.95982 341.7Q146.24107 341.7 145.80357 342.3094Q145.2567 343.09064 145.2567 345.21564ZM151.17857 347.2L152.28795 347.10626Q152.41295 347.91876 152.85045 348.325Q153.30357 348.73126 153.9442 348.73126Q154.6942 348.73126 155.22545 348.15314Q155.7567 347.575 155.7567 346.6375Q155.7567 345.73126 155.24107 345.21564Q154.74107 344.6844 153.91295 344.6844Q153.41295 344.6844 152.99107 344.91876Q152.58482 345.15314 152.35045 345.5125L151.36607 345.3875L152.1942 340.98126L156.47545 340.98126L156.47545 341.98126L153.03795 341.98126L152.58482 344.29376Q153.35045 343.7469 154.1942 343.7469Q155.3192 343.7469 156.08482 344.52814Q156.86607 345.3094 156.86607 346.54376Q156.86607 347.7 156.1942 348.5594Q155.36607 349.59064 153.9442 349.59064Q152.77232 349.59064 152.02232 348.9344Q151.28795 348.27814 151.17857 347.2Z" fill-rule="nonzero"/><path fill="#000000" d="M264.27307 348.4344L264.27307 349.45L258.58557 349.45Q258.58557 349.075 258.71057 348.71564Q258.92932 348.1375 259.39807 347.575Q259.88245 347.0125 260.7887 346.27814Q262.19495 345.1219 262.67932 344.45Q263.17932 343.77814 263.17932 343.1844Q263.17932 342.5594 262.7262 342.1375Q262.27307 341.7 261.55432 341.7Q260.7887 341.7 260.33557 342.15314Q259.88245 342.60626 259.86682 343.41876L258.7887 343.3094Q258.89807 342.09064 259.61682 341.46564Q260.3512 340.825 261.58557 340.825Q262.81995 340.825 263.5387 341.5125Q264.25745 342.2 264.25745 343.21564Q264.25745 343.73126 264.0387 344.23126Q263.83557 344.71564 263.33557 345.27814Q262.8512 345.825 261.7262 346.77814Q260.77307 347.575 260.49182 347.8719Q260.2262 348.15314 260.05432 348.4344L264.27307 348.4344ZM265.7262 345.21564Q265.7262 343.6844 266.0387 342.7625Q266.3512 341.825 266.96057 341.325Q267.58557 340.825 268.52307 340.825Q269.21057 340.825 269.7262 341.10626Q270.25745 341.3875 270.6012 341.91876Q270.94495 342.4344 271.13245 343.1844Q271.31995 343.9344 271.31995 345.21564Q271.31995 346.73126 271.00745 347.65314Q270.71057 348.575 270.08557 349.09064Q269.4762 349.59064 268.52307 349.59064Q267.2887 349.59064 266.56995 348.7Q265.7262 347.6375 265.7262 345.21564ZM266.80432 345.21564Q266.80432 347.325 267.30432 348.02814Q267.80432 348.73126 268.52307 348.73126Q269.25745 348.73126 269.74182 348.02814Q270.24182 347.325 270.24182 345.21564Q270.24182 343.09064 269.74182 342.40314Q269.25745 341.7 268.50745 341.7Q267.7887 341.7 267.3512 342.3094Q266.80432 343.09064 266.80432 345.21564ZM276.69495 349.45L275.64807 349.45L275.64807 342.73126Q275.25745 343.09064 274.63245 343.46564Q274.02307 343.825 273.5387 343.9969L273.5387 342.98126Q274.4137 342.5594 275.06995 341.98126Q275.74182 341.3875 276.02307 340.825L276.69495 340.825L276.69495 349.45ZM279.7262 345.21564Q279.7262 343.6844 280.0387 342.7625Q280.3512 341.825 280.96057 341.325Q281.58557 340.825 282.52307 340.825Q283.21057 340.825 283.7262 341.10626Q284.25745 341.3875 284.6012 341.91876Q284.94495 342.4344 285.13245 343.1844Q285.31995 343.9344 285.31995 345.21564Q285.31995 346.73126 285.00745 347.65314Q284.71057 348.575 284.08557 349.09064Q283.4762 349.59064 282.52307 349.59064Q281.2887 349.59064 280.56995 348.7Q279.7262 347.6375 279.7262 345.21564ZM280.80432 345.21564Q280.80432 347.325 281.30432 348.02814Q281.80432 348.73126 282.52307 348.73126Q283.25745 348.73126 283.74182 348.02814Q284.24182 347.325 284.24182 345.21564Q284.24182 343.09064 283.74182 342.40314Q283.25745 341.7 282.50745 341.7Q281.7887 341.7 281.3512 342.3094Q280.80432 343.09064 280.80432 345.21564Z" fill-rule="nonzero"/><path fill="#000000" d="M392.82068 348.4344L392.82068 349.45L387.13318 349.45Q387.13318 349.075 387.25818 348.71564Q387.47693 348.1375 387.94568 347.575Q388.43005 347.0125 389.3363 346.27814Q390.74255 345.1219 391.22693 344.45Q391.72693 343.77814 391.72693 343.1844Q391.72693 342.5594 391.2738 342.1375Q390.82068 341.7 390.10193 341.7Q389.3363 341.7 388.88318 342.15314Q388.43005 342.60626 388.41443 343.41876L387.3363 343.3094Q387.44568 342.09064 388.16443 341.46564Q388.8988 340.825 390.13318 340.825Q391.36755 340.825 392.0863 341.5125Q392.80505 342.2 392.80505 343.21564Q392.80505 343.73126 392.5863 344.23126Q392.38318 344.71564 391.88318 345.27814Q391.3988 345.825 390.2738 346.77814Q389.32068 347.575 389.03943 347.8719Q388.7738 348.15314 388.60193 348.4344L392.82068 348.4344ZM394.2738 345.21564Q394.2738 343.6844 394.5863 342.7625Q394.8988 341.825 395.50818 341.325Q396.13318 340.825 397.07068 340.825Q397.75818 340.825 398.2738 341.10626Q398.80505 341.3875 399.1488 341.91876Q399.49255 342.4344 399.68005 343.1844Q399.86755 343.9344 399.86755 345.21564Q399.86755 346.73126 399.55505 347.65314Q399.25818 348.575 398.63318 349.09064Q398.0238 349.59064 397.07068 349.59064Q395.8363 349.59064 395.11755 348.7Q394.2738 347.6375 394.2738 345.21564ZM395.35193 345.21564Q395.35193 347.325 395.85193 348.02814Q396.35193 348.73126 397.07068 348.73126Q397.80505 348.73126 398.28943 348.02814Q398.78943 347.325 398.78943 345.21564Q398.78943 343.09064 398.28943 342.40314Q397.80505 341.7 397.05505 341.7Q396.3363 341.7 395.8988 342.3094Q395.35193 343.09064 395.35193 345.21564ZM405.24255 349.45L404.19568 349.45L404.19568 342.73126Q403.80505 343.09064 403.18005 343.46564Q402.57068 343.825 402.0863 343.9969L402.0863 342.98126Q402.9613 342.5594 403.61755 341.98126Q404.28943 341.3875 404.57068 340.825L405.24255 340.825L405.24255 349.45ZM408.2738 347.2L409.38318 347.10626Q409.50818 347.91876 409.94568 348.325Q410.3988 348.73126 411.03943 348.73126Q411.78943 348.73126 412.32068 348.15314Q412.85193 347.575 412.85193 346.6375Q412.85193 345.73126 412.3363 345.21564Q411.8363 344.6844 411.00818 344.6844Q410.50818 344.6844 410.0863 344.91876Q409.68005 345.15314 409.44568 345.5125L408.4613 345.3875L409.28943 340.98126L413.57068 340.98126L413.57068 341.98126L410.13318 341.98126L409.68005 344.29376Q410.44568 343.7469 411.28943 343.7469Q412.41443 343.7469 413.18005 344.52814Q413.9613 345.3094 413.9613 346.54376Q413.9613 347.7 413.28943 348.5594Q412.4613 349.59064 411.03943 349.59064Q409.86755 349.59064 409.11755 348.9344Q408.38318 348.27814 408.2738 347.2Z" fill-rule="nonzero"/><path fill="#000000" d="M521.3683 348.4344L521.3683 349.45L515.6808 349.45Q515.6808 349.075 515.8058 348.71564Q516.02454 348.1375 516.4933 347.575Q516.97766 347.0125 517.8839 346.27814Q519.29016 345.1219 519.77454 344.45Q520.27454 343.77814 520.27454 343.1844Q520.27454 342.5594 519.8214 342.1375Q519.3683 341.7 518.64954 341.7Q517.8839 341.7 517.4308 342.15314Q516.97766 342.60626 516.96204 343.41876L515.8839 343.3094Q515.9933 342.09064 516.71204 341.46564Q517.4464 340.825 518.6808 340.825Q519.91516 340.825 520.6339 341.5125Q521.35266 342.2 521.35266 343.21564Q521.35266 343.73126 521.1339 344.23126Q520.9308 344.71564 520.4308 345.27814Q519.9464 345.825 518.8214 346.77814Q517.8683 347.575 517.58704 347.8719Q517.3214 348.15314 517.14954 348.4344L521.3683 348.4344ZM522.8214 345.21564Q522.8214 343.6844 523.1339 342.7625Q523.4464 341.825 524.0558 341.325Q524.6808 340.825 525.6183 340.825Q526.3058 340.825 526.8214 341.10626Q527.35266 341.3875 527.6964 341.91876Q528.04016 342.4344 528.22766 343.1844Q528.41516 343.9344 528.41516 345.21564Q528.41516 346.73126 528.10266 347.65314Q527.8058 348.575 527.1808 349.09064Q526.5714 349.59064 525.6183 349.59064Q524.3839 349.59064 523.66516 348.7Q522.8214 347.6375 522.8214 345.21564ZM523.89954 345.21564Q523.89954 347.325 524.39954 348.02814Q524.89954 348.73126 525.6183 348.73126Q526.35266 348.73126 526.83704 348.02814Q527.33704 347.325 527.33704 345.21564Q527.33704 343.09064 526.83704 342.40314Q526.35266 341.7 525.60266 341.7Q524.8839 341.7 524.4464 342.3094Q523.89954 343.09064 523.89954 345.21564ZM535.3683 348.4344L535.3683 349.45L529.6808 349.45Q529.6808 349.075 529.8058 348.71564Q530.02454 348.1375 530.4933 347.575Q530.97766 347.0125 531.8839 346.27814Q533.29016 345.1219 533.77454 344.45Q534.27454 343.77814 534.27454 343.1844Q534.27454 342.5594 533.8214 342.1375Q533.3683 341.7 532.64954 341.7Q531.8839 341.7 531.4308 342.15314Q530.97766 342.60626 530.96204 343.41876L529.8839 343.3094Q529.9933 342.09064 530.71204 341.46564Q531.4464 340.825 532.6808 340.825Q533.91516 340.825 534.6339 341.5125Q535.35266 342.2 535.35266 343.21564Q535.35266 343.73126 535.1339 344.23126Q534.9308 344.71564 534.4308 345.27814Q533.9464 345.825 532.8214 346.77814Q531.8683 347.575 531.58704 347.8719Q531.3214 348.15314 531.14954 348.4344L535.3683 348.4344ZM536.8214 345.21564Q536.8214 343.6844 537.1339 342.7625Q537.4464 341.825 538.0558 341.325Q538.6808 340.825 539.6183 340.825Q540.3058 340.825 540.8214 341.10626Q541.35266 341.3875 541.6964 341.91876Q542.04016 342.4344 542.22766 343.1844Q542.41516 343.9344 542.41516 345.21564Q542.41516 346.73126 542.10266 347.65314Q541.8058 348.575 541.1808 349.09064Q540.5714 349.59064 539.6183 349.59064Q538.3839 349.59064 537.66516 348.7Q536.8214 347.6375 536.8214 345.21564ZM537.89954 345.21564Q537.89954 347.325 538.39954 348.02814Q538.89954 348.73126 539.6183 348.73126Q540.35266 348.73126 540.83704 348.02814Q541.33704 347.325 541.33704 345.21564Q541.33704 343.09064 540.83704 342.40314Q540.35266 341.7 539.60266 341.7Q538.8839 341.7 538.4464 342.3094Q537.89954 343.09064 537.89954 345.21564Z" fill-rule="nonzero"/><path stroke="#434343" stroke-width="4.0" stroke-linecap="butt" d="M236.0 25.55L248.0 25.55" fill-rule="nonzero"/><path fill="#000000" d="M256.60938 29.690624L257.10938 27.20625L256.125 27.20625L256.125 26.33125L257.29688 26.33125L257.71875 24.20625L256.125 24.20625L256.125 23.33125L257.90625 23.33125L258.40625 20.815624L259.28125 20.815624L258.78125 23.33125L260.625 23.33125L261.14062 20.815624L262.01562 20.815624L261.51562 23.33125L262.51562 23.33125L262.51562 24.20625L261.32812 24.20625L260.89062 26.33125L262.51562 26.33125L262.51562 27.20625L260.71875 27.20625L260.20312 29.690624L259.32812 29.690624L259.82812 27.20625L258.0 27.20625L257.48438 29.690624L256.60938 29.690624ZM258.17188 26.33125L260.01562 26.33125L260.45312 24.20625L258.60938 24.20625L258.17188 26.33125ZM266.54688 26.784374L267.60938 26.690624Q267.6875 27.346874 267.96875 27.753124Q268.25 28.159374 268.82812 28.425Q269.42188 28.675 270.15625 28.675Q270.79688 28.675 271.29688 28.4875Q271.79688 28.284374 272.03125 27.95625Q272.28125 27.6125 272.28125 27.221874Q272.28125 26.815624 272.04688 26.51875Q271.8125 26.20625 271.28125 26.003124Q270.92188 25.8625 269.73438 25.58125Q268.5625 25.3 268.09375 25.05Q267.46875 24.721874 267.17188 24.253124Q266.875 23.76875 266.875 23.175Q266.875 22.534374 267.23438 21.971874Q267.60938 21.39375 268.3125 21.1125Q269.03125 20.815624 269.89062 20.815624Q270.84375 20.815624 271.57812 21.128124Q272.3125 21.425 272.70312 22.034374Q273.09375 22.628124 273.125 23.378124L272.03125 23.45625Q271.9375 22.64375 271.42188 22.2375Q270.92188 21.815624 269.9375 21.815624Q268.90625 21.815624 268.4375 22.190624Q267.96875 22.565624 267.96875 23.096874Q267.96875 23.565624 268.29688 23.8625Q268.625 24.159374 270.0 24.471874Q271.39062 24.784374 271.90625 25.01875Q272.65625 25.378124 273.01562 25.909374Q273.375 26.425 273.375 27.128124Q273.375 27.815624 272.98438 28.425Q272.59375 29.01875 271.85938 29.3625Q271.125 29.690624 270.20312 29.690624Q269.03125 29.690624 268.23438 29.3625Q267.45312 29.01875 267.0 28.33125Q266.5625 27.64375 266.54688 26.784374ZM277.09375 28.6125L277.25 29.534374Q276.79688 29.628124 276.45312 29.628124Q275.875 29.628124 275.5625 29.45625Q275.25 29.26875 275.10938 28.971874Q274.98438 28.675 274.98438 27.721874L274.98438 24.14375L274.21875 24.14375L274.21875 23.33125L274.98438 23.33125L274.98438 21.784374L276.03125 21.159374L276.03125 23.33125L277.09375 23.33125L277.09375 24.14375L276.03125 24.14375L276.03125 27.784374Q276.03125 28.2375 276.07812 28.3625Q276.14062 28.4875 276.26562 28.565624Q276.39062 28.64375 276.625 28.64375Q276.8125 28.64375 277.09375 28.6125ZM281.875 29.55L281.875 28.628124Q281.14062 29.690624 279.89062 29.690624Q279.34375 29.690624 278.85938 29.4875Q278.39062 29.26875 278.15625 28.95625Q277.92188 28.628124 277.82812 28.159374Q277.76562 27.8625 277.76562 27.175L277.76562 23.33125L278.82812 23.33125L278.82812 26.784374Q278.82812 27.596874 278.89062 27.89375Q278.98438 28.3 279.29688 28.55Q279.625 28.784374 280.10938 28.784374Q280.57812 28.784374 280.98438 28.55Q281.40625 28.3 281.57812 27.878124Q281.76562 27.45625 281.76562 26.659374L281.76562 23.33125L282.8125 23.33125L282.8125 29.55L281.875 29.55ZM288.82812 29.55L288.82812 28.76875Q288.23438 29.690624 287.09375 29.690624Q286.34375 29.690624 285.71875 29.284374Q285.09375 28.8625 284.75 28.128124Q284.40625 27.39375 284.40625 26.440624Q284.40625 25.51875 284.71875 24.753124Q285.03125 23.9875 285.65625 23.596874Q286.28125 23.190624 287.04688 23.190624Q287.60938 23.190624 288.04688 23.425Q288.48438 23.659374 288.76562 24.034374L288.76562 20.95625L289.8125 20.95625L289.8125 29.55L288.82812 29.55ZM285.5 26.440624Q285.5 27.64375 286.0 28.2375Q286.5 28.815624 287.1875 28.815624Q287.875 28.815624 288.35938 28.253124Q288.84375 27.690624 288.84375 26.534374Q288.84375 25.253124 288.34375 24.659374Q287.85938 24.065624 287.14062 24.065624Q286.4375 24.065624 285.96875 24.64375Q285.5 25.20625 285.5 26.440624ZM296.04688 27.55L297.14062 27.675Q296.89062 28.628124 296.1875 29.159374Q295.48438 29.690624 294.40625 29.690624Q293.04688 29.690624 292.23438 28.846874Q291.4375 28.003124 291.4375 26.4875Q291.4375 24.925 292.25 24.065624Q293.0625 23.190624 294.34375 23.190624Q295.59375 23.190624 296.375 24.034374Q297.17188 24.878124 297.17188 26.425Q297.17188 26.51875 297.17188 26.70625L292.53125 26.70625Q292.59375 27.7375 293.10938 28.284374Q293.625 28.815624 294.40625 28.815624Q294.98438 28.815624 295.39062 28.51875Q295.8125 28.20625 296.04688 27.55ZM292.59375 25.846874L296.0625 25.846874Q296.0 25.05 295.67188 24.659374Q295.15625 24.05 294.35938 24.05Q293.625 24.05 293.125 24.534374Q292.64062 25.01875 292.59375 25.846874ZM298.79688 29.55L298.79688 23.33125L299.73438 23.33125L299.73438 24.20625Q300.42188 23.190624 301.71875 23.190624Q302.28125 23.190624 302.75 23.39375Q303.23438 23.596874 303.46875 23.925Q303.70312 24.253124 303.79688 24.690624Q303.84375 24.9875 303.84375 25.721874L303.84375 29.55L302.79688 29.55L302.79688 25.76875Q302.79688 25.1125 302.67188 24.8Q302.54688 24.4875 302.23438 24.3Q301.92188 24.096874 301.5 24.096874Q300.82812 24.096874 300.32812 24.534374Q299.84375 24.95625 299.84375 26.14375L299.84375 29.55L298.79688 29.55ZM308.09375 28.6125L308.25 29.534374Q307.79688 29.628124 307.45312 29.628124Q306.875 29.628124 306.5625 29.45625Q306.25 29.26875 306.10938 28.971874Q305.98438 28.675 305.98438 27.721874L305.98438 24.14375L305.21875 24.14375L305.21875 23.33125L305.98438 23.33125L305.98438 21.784374L307.03125 21.159374L307.03125 23.33125L308.09375 23.33125L308.09375 24.14375L307.03125 24.14375L307.03125 27.784374Q307.03125 28.2375 307.07812 28.3625Q307.14062 28.4875 307.26562 28.565624Q307.39062 28.64375 307.625 28.64375Q307.8125 28.64375 308.09375 28.6125ZM308.375 27.690624L309.40625 27.534374Q309.5 28.159374 309.89062 28.4875Q310.29688 28.815624 311.03125 28.815624Q311.75 28.815624 312.09375 28.534374Q312.45312 28.2375 312.45312 27.83125Q312.45312 27.471874 312.14062 27.26875Q311.92188 27.128124 311.0625 26.909374Q309.90625 26.6125 309.45312 26.409374Q309.01562 26.190624 308.78125 25.815624Q308.54688 25.440624 308.54688 24.971874Q308.54688 24.565624 308.73438 24.20625Q308.92188 23.846874 309.25 23.6125Q309.5 23.440624 309.92188 23.315624Q310.34375 23.190624 310.84375 23.190624Q311.5625 23.190624 312.10938 23.409374Q312.67188 23.6125 312.9375 23.971874Q313.20312 24.33125 313.29688 24.925L312.26562 25.065624Q312.20312 24.596874 311.85938 24.33125Q311.53125 24.05 310.90625 24.05Q310.1875 24.05 309.875 24.3Q309.5625 24.534374 309.5625 24.8625Q309.5625 25.065624 309.6875 25.221874Q309.82812 25.39375 310.09375 25.503124Q310.25 25.565624 311.03125 25.76875Q312.15625 26.08125 312.59375 26.26875Q313.03125 26.45625 313.28125 26.815624Q313.53125 27.175 313.53125 27.721874Q313.53125 28.253124 313.21875 28.721874Q312.92188 29.175 312.34375 29.440624Q311.76562 29.690624 311.03125 29.690624Q309.8125 29.690624 309.17188 29.190624Q308.54688 28.675 308.375 27.690624Z" fill-rule="nonzero"/><path stroke="#ea4335" stroke-width="4.0" stroke-linecap="butt" d="M331.0 25.55L343.0 25.55" fill-rule="nonzero"/><path fill="#000000" d="M351.89062 29.55L351.89062 20.95625L353.60938 20.95625L355.64062 27.034374Q355.92188 27.89375 356.04688 28.315624Q356.1875 27.846874 356.5 26.940624L358.5625 20.95625L360.09375 20.95625L360.09375 29.55L359.0 29.55L359.0 22.3625L356.5 29.55L355.46875 29.55L352.98438 22.2375L352.98438 29.55L351.89062 29.55ZM365.04688 27.55L366.14062 27.675Q365.89062 28.628124 365.1875 29.159374Q364.48438 29.690624 363.40625 29.690624Q362.04688 29.690624 361.23438 28.846874Q360.4375 28.003124 360.4375 26.4875Q360.4375 24.925 361.25 24.065624Q362.0625 23.190624 363.34375 23.190624Q364.59375 23.190624 365.375 24.034374Q366.17188 24.878124 366.17188 26.425Q366.17188 26.51875 366.17188 26.70625L361.53125 26.70625Q361.59375 27.7375 362.10938 28.284374Q362.625 28.815624 363.40625 28.815624Q363.98438 28.815624 364.39062 28.51875Q364.8125 28.20625 365.04688 27.55ZM361.59375 25.846874L365.0625 25.846874Q365.0 25.05 364.67188 24.659374Q364.15625 24.05 363.35938 24.05Q362.625 24.05 362.125 24.534374Q361.64062 25.01875 361.59375 25.846874ZM371.85938 28.784374Q371.26562 29.284374 370.71875 29.4875Q370.1875 29.690624 369.5625 29.690624Q368.53125 29.690624 367.98438 29.190624Q367.4375 28.690624 367.4375 27.909374Q367.4375 27.45625 367.64062 27.08125Q367.84375 26.690624 368.1875 26.471874Q368.53125 26.2375 368.95312 26.128124Q369.25 26.034374 369.89062 25.95625Q371.15625 25.815624 371.76562 25.596874Q371.76562 25.378124 371.76562 25.33125Q371.76562 24.675 371.46875 24.409374Q371.0625 24.065624 370.26562 24.065624Q369.53125 24.065624 369.17188 24.33125Q368.8125 24.58125 368.64062 25.2375L367.60938 25.096874Q367.75 24.440624 368.07812 24.034374Q368.40625 23.628124 369.01562 23.409374Q369.625 23.190624 370.42188 23.190624Q371.21875 23.190624 371.71875 23.378124Q372.21875 23.565624 372.45312 23.846874Q372.6875 24.128124 372.78125 24.565624Q372.82812 24.83125 372.82812 25.534374L372.82812 26.940624Q372.82812 28.409374 372.89062 28.8Q372.96875 29.190624 373.17188 29.55L372.0625 29.55Q371.90625 29.221874 371.85938 28.784374ZM371.76562 26.425Q371.1875 26.659374 370.04688 26.83125Q369.39062 26.925 369.125 27.05Q368.85938 27.159374 368.70312 27.378124Q368.5625 27.596874 368.5625 27.878124Q368.5625 28.3 368.875 28.58125Q369.20312 28.8625 369.8125 28.8625Q370.42188 28.8625 370.89062 28.596874Q371.375 28.33125 371.59375 27.8625Q371.76562 27.503124 371.76562 26.815624L371.76562 26.425ZM374.79688 29.55L374.79688 23.33125L375.73438 23.33125L375.73438 24.20625Q376.42188 23.190624 377.71875 23.190624Q378.28125 23.190624 378.75 23.39375Q379.23438 23.596874 379.46875 23.925Q379.70312 24.253124 379.79688 24.690624Q379.84375 24.9875 379.84375 25.721874L379.84375 29.55L378.79688 29.55L378.79688 25.76875Q378.79688 25.1125 378.67188 24.8Q378.54688 24.4875 378.23438 24.3Q377.92188 24.096874 377.5 24.096874Q376.82812 24.096874 376.32812 24.534374Q375.84375 24.95625 375.84375 26.14375L375.84375 29.55L374.79688 29.55ZM384.54688 26.784374L385.60938 26.690624Q385.6875 27.346874 385.96875 27.753124Q386.25 28.159374 386.82812 28.425Q387.42188 28.675 388.15625 28.675Q388.79688 28.675 389.29688 28.4875Q389.79688 28.284374 390.03125 27.95625Q390.28125 27.6125 390.28125 27.221874Q390.28125 26.815624 390.04688 26.51875Q389.8125 26.20625 389.28125 26.003124Q388.92188 25.8625 387.73438 25.58125Q386.5625 25.3 386.09375 25.05Q385.46875 24.721874 385.17188 24.253124Q384.875 23.76875 384.875 23.175Q384.875 22.534374 385.23438 21.971874Q385.60938 21.39375 386.3125 21.1125Q387.03125 20.815624 387.89062 20.815624Q388.84375 20.815624 389.57812 21.128124Q390.3125 21.425 390.70312 22.034374Q391.09375 22.628124 391.125 23.378124L390.03125 23.45625Q389.9375 22.64375 389.42188 22.2375Q388.92188 21.815624 387.9375 21.815624Q386.90625 21.815624 386.4375 22.190624Q385.96875 22.565624 385.96875 23.096874Q385.96875 23.565624 386.29688 23.8625Q386.625 24.159374 388.0 24.471874Q389.39062 24.784374 389.90625 25.01875Q390.65625 25.378124 391.01562 25.909374Q391.375 26.425 391.375 27.128124Q391.375 27.815624 390.98438 28.425Q390.59375 29.01875 389.85938 29.3625Q389.125 29.690624 388.20312 29.690624Q387.03125 29.690624 386.23438 29.3625Q385.45312 29.01875 385.0 28.33125Q384.5625 27.64375 384.54688 26.784374ZM396.85938 27.26875L397.89062 27.409374Q397.71875 28.471874 397.01562 29.08125Q396.3125 29.690624 395.29688 29.690624Q394.01562 29.690624 393.23438 28.8625Q392.46875 28.01875 392.46875 26.45625Q392.46875 25.45625 392.79688 24.70625Q393.14062 23.940624 393.8125 23.565624Q394.5 23.190624 395.3125 23.190624Q396.3125 23.190624 396.95312 23.70625Q397.60938 24.20625 397.79688 25.159374L396.76562 25.315624Q396.625 24.690624 396.25 24.378124Q395.875 24.05 395.34375 24.05Q394.54688 24.05 394.04688 24.628124Q393.54688 25.190624 393.54688 26.425Q393.54688 27.690624 394.03125 28.253124Q394.51562 28.815624 395.28125 28.815624Q395.90625 28.815624 396.3125 28.440624Q396.73438 28.065624 396.85938 27.26875ZM398.40625 26.440624Q398.40625 24.70625 399.35938 23.878124Q400.15625 23.190624 401.3125 23.190624Q402.59375 23.190624 403.40625 24.034374Q404.23438 24.8625 404.23438 26.346874Q404.23438 27.55 403.875 28.2375Q403.51562 28.925 402.8125 29.315624Q402.125 29.690624 401.3125 29.690624Q400.01562 29.690624 399.20312 28.8625Q398.40625 28.01875 398.40625 26.440624ZM399.48438 26.440624Q399.48438 27.628124 400.0 28.221874Q400.53125 28.815624 401.3125 28.815624Q402.10938 28.815624 402.625 28.221874Q403.14062 27.628124 403.14062 26.409374Q403.14062 25.253124 402.60938 24.659374Q402.09375 24.065624 401.3125 24.065624Q400.53125 24.065624 400.0 24.659374Q399.48438 25.2375 399.48438 26.440624ZM405.78125 29.55L405.78125 23.33125L406.73438 23.33125L406.73438 24.26875Q407.09375 23.6125 407.39062 23.409374Q407.70312 23.190624 408.07812 23.190624Q408.60938 23.190624 409.15625 23.51875L408.79688 24.503124Q408.40625 24.26875 408.03125 24.26875Q407.67188 24.26875 407.39062 24.4875Q407.125 24.690624 407.01562 25.065624Q406.82812 25.628124 406.82812 26.284374L406.82812 29.55L405.78125 29.55ZM414.04688 27.55L415.14062 27.675Q414.89062 28.628124 414.1875 29.159374Q413.48438 29.690624 412.40625 29.690624Q411.04688 29.690624 410.23438 28.846874Q409.4375 28.003124 409.4375 26.4875Q409.4375 24.925 410.25 24.065624Q411.0625 23.190624 412.34375 23.190624Q413.59375 23.190624 414.375 24.034374Q415.17188 24.878124 415.17188 26.425Q415.17188 26.51875 415.17188 26.70625L410.53125 26.70625Q410.59375 27.7375 411.10938 28.284374Q411.625 28.815624 412.40625 28.815624Q412.98438 28.815624 413.39062 28.51875Q413.8125 28.20625 414.04688 27.55ZM410.59375 25.846874L414.0625 25.846874Q414.0 25.05 413.67188 24.659374Q413.15625 24.05 412.35938 24.05Q411.625 24.05 411.125 24.534374Q410.64062 25.01875 410.59375 25.846874Z" fill-rule="nonzero"/></svg>